<svg version="1" xmlns="http://www.w3.org/2000/svg" width="2666.667" height="2666.667" viewBox="0 0 2000.000000 2000.000000"><path d="M0 1000v1000h2000V0H0v1000zm801-642.7c3.6.9 9.1 2.5 12.3 3.6 25.1 8.7 43.2 28.7 50.5 56 2.2 8.5 2.5 11.5 2.5 26.6 0 19-1.8 30.2-7.4 46.2-12.9 36.4-43.4 73.2-76.7 92.2-15.9 9.1-37.5 16.3-53.4 17.8-6.7.6-9.6 2.3-3.9 2.3 4.1 0 15.4 2.5 22.4 4.9 25.1 8.7 43.4 29.1 50.8 56.6 3 10.8 3.2 37.5.5 51-6.7 33.8-23.1 62.3-51.7 90-21.7 20.9-44.4 33.2-73.8 39.6-8.6 1.9-13.9 2.2-52.1 2.8-40.5.6-42.7.7-46.5 2.7-7.7 4-8 5-25.9 70.9-19.3 71.5-22.1 79.1-35.4 99.1-23.6 35.1-59.8 59.4-102.2 68.5-9 2-13.5 2.3-31 2.3-22.1 0-28.9-1-44.4-6.8-24-9-42.1-28.9-48.8-53.5-2.6-9.5-3.1-35.4-.9-46.6.7-3.9 8.1-32.2 16.3-63 27-101.4 40.6-152.5 49.2-186 28.1-109.4 62-193.4 101.6-252.5 13.3-19.9 24.9-33.9 42.5-51.6 24.6-24.7 43.2-38.1 71.6-51.8 25.8-12.4 54-20.1 84.4-22.9 2.2-.2 35.3-.3 73.5-.2 60.2.1 70.4.4 76 1.8zm277.5 2.1c18.9 4.9 35.9 15.1 46.5 27.9 6.4 7.8 13.4 21.7 16.1 32.2 2.7 10.5 2.9 30.2.5 43-1 4.9-17.7 68.6-37.3 141.5-19.5 72.9-37.9 141.9-40.9 153.5-9.4 37.1-14.8 68.2-14.2 82.2l.3 6.8 41.5.6c46 .6 49.9 1 66.8 7.8 18.5 7.4 35.7 25.9 42.7 45.8 7.5 21.6 7.1 50.1-1.1 76.7-3.6 11.4-14.2 32.5-21.6 42.8-27.6 38.2-58.7 59.8-99.3 68.9-9.7 2.2-11.8 2.3-77.4 2.6-56.4.3-69.7.1-81-1.2C812.9 1078.2 773 994.2 799.5 837c6.5-38.3 13.6-68.8 29.4-126.5 6.6-24.2 23.9-88.2 38.5-142.1 14.6-54 28-102.2 29.9-107.1 9.3-24 21.8-42.6 40.7-60.6 22-20.9 50.4-35.9 78.9-41.6 14-2.9 14.9-2.9 34.1-2.6 15 .3 18.9.7 27.5 2.9zm473 0c18.9 4.9 35.9 15.1 46.5 27.9 6.4 7.8 13.4 21.7 16.1 32.2 2.7 10.5 2.9 30.2.5 43-1 4.9-17.7 68.6-37.3 141.5-19.5 72.9-37.9 141.9-40.9 153.5-9.4 37.1-14.8 68.2-14.2 82.2l.3 6.8 41.5.6c46 .6 49.9 1 66.8 7.8 18.5 7.4 35.7 25.9 42.7 45.8 7.5 21.6 7.1 50.1-1.1 76.7-3.6 11.4-14.2 32.5-21.6 42.8-27.6 38.2-58.7 59.8-99.3 68.9-9.7 2.2-11.8 2.3-77.4 2.6-56.4.3-69.7.1-81-1.2-107.2-12.3-147.1-96.3-120.6-253.5 6.5-38.3 13.6-68.8 29.4-126.5 6.6-24.2 23.9-88.2 38.5-142.1 14.6-54 28-102.2 29.9-107.1 9.3-24 21.8-42.6 40.7-60.6 22-20.9 50.4-35.9 78.9-41.6 14-2.9 14.9-2.9 34.1-2.6 15 .3 18.9.7 27.5 2.9zM360 1244c40.2 5 69.2 26.8 76.6 57.5 2.4 10.1 2.2 26.8-.4 37-4.3 16.6-12.1 29.8-24.7 42-11.5 11.2-25.1 19-42.4 24.1-1 .3-.6 1.3 1.6 3.7 4.7 4.8 10.8 14.8 14.3 23.5 10.6 25.3 10.2 61.8-1.1 96.2-14.9 45.5-55 92.8-94.5 111.5-11.5 5.5-26.8 10.2-38.7 11.9-12.3 1.9-56.3 2.2-69.7.6-44.5-5.5-74.3-31.1-77.9-67-1.7-16.8 2-33.9 10.6-48.7 13.2-22.7 32.2-37.4 58.1-44.9.8-.2-.7-2.7-3.9-6.6-14.7-18.2-21.6-45.8-19-75.5 2.8-32 12.8-60.1 30.9-87.3 19.7-29.5 43.2-51.4 69.7-64.5 13.9-6.9 25.6-10.7 40-12.9 11-1.7 58.2-2.1 70.5-.6zm288.5.5c37.9 6.1 62.7 30.1 70.8 68.5 2.6 12.4 2.7 35.8.2 47.5-5.3 25-20.2 46.2-41.9 59.6-42.3 26-90.4 14.2-96.9-23.8-.6-3.5-1.4-6.3-1.7-6.3-1.2 0-9.3 23.2-15 43-8 27.5-16 63.3-16 71.3 0 2.8.2 2.7 3.6-2.4 13-19 29.3-31.4 49-37.1 6.4-1.8 10.4-2.3 21.4-2.3 19.6 0 30 3.6 41.2 14.3 14.6 13.9 17.3 33.9 8.4 60.6-15.6 46.6-59.5 91.5-105.1 107.6-18.1 6.4-24.2 7.2-55.7 7.7-32.6.6-41.4-.2-55.6-4.9-38.5-12.8-55.6-50.2-50.1-109.8 4-43.6 22-114.3 42.2-165.4 28.7-72.9 70.2-115.5 123.3-126.5 13.7-2.8 12.9-2.8 42.4-2.9 19.1-.2 29 .2 35.5 1.3zm290.2-.4c9.5 1.3 23.9 5.9 31.1 10.1 7.7 4.4 16.8 13.2 22.3 21.5 18.1 27.8 19.5 72 4.3 138.3-12.7 55-29.8 106.9-46.1 139.3-29 58-68.4 90.7-118.3 98.2-11.5 1.8-55.9 2-67.7.4-4.3-.6-12-2.4-17.1-4.1-38.5-12.7-55.6-50.2-50.1-109.8 4-43.6 22-114.3 42.2-165.4 28.7-72.9 70.2-115.5 123.3-126.5 5.4-1.1 11.3-2.2 12.9-2.4 7.1-.9 56-.6 63.2.4zm291.9.4c11 1.8 23.1 5.9 31.1 10.6 3.2 1.9 9.6 7.2 14.3 11.9 16.8 16.8 24 37.6 24 69.5 0 21.6-3.6 43.2-11.4 70.2-8.2 28-21.8 57.6-35.3 76.6l-3.4 4.9 1.2 13.8c1.9 22.2-.9 48.1-8.3 76.5-5.5 21.2-11.5 32.8-23.7 45.8-25.9 27.5-70.1 36-97 18.8-14-9-20.7-22.8-20-41.1l.4-8.5-4.2 8.7c-8.8 17.8-23.3 32.1-41.8 40.9-13.2 6.3-19.6 7.9-34 8.6-14.4.6-22.3-.9-32.8-6.4-18-9.5-26.7-27-23.9-48.5 1.1-8.8 62-237.6 67.3-253.2 7.6-22.3 18.8-39.6 37.9-58.6 23.6-23.6 46.4-35.8 76-40.5 12.6-1.9 71.5-2 83.6 0zm552 0c11 1.8 23.1 5.9 31.1 10.6 3.2 1.9 9.6 7.2 14.3 11.9 16.8 16.8 24 37.6 24 69.5 0 21.6-3.6 43.2-11.4 70.2-8.2 28-21.8 57.6-35.3 76.6l-3.4 4.9 1.2 13.8c1.9 22.2-.9 48.1-8.3 76.5-5.5 21.2-11.5 32.8-23.7 45.8-25.9 27.5-70.1 36-97 18.8-14-9-20.7-22.8-20-41.1l.4-8.5-4.2 8.7c-8.8 17.8-23.3 32.1-41.8 40.9-13.2 6.3-19.6 7.9-34 8.6-14.4.6-22.3-.9-32.8-6.4-18-9.5-26.7-27-23.9-48.5 1.1-8.8 62-237.6 67.3-253.2 7.6-22.3 18.8-39.6 37.9-58.6 23.6-23.6 46.4-35.8 76-40.5 12.6-1.9 71.5-2 83.6 0zm-235.3 1.8c15.7 5.4 26.1 16.4 30.3 32.2 1.9 6.8 1.7 23.1-.2 31.7-4.9 21.6-21 44.4-40.5 57.3-8 5.4-21.6 10.9-29.4 12-7.4 1.1-7.5 1.7-.5 3.2 9 1.8 16.4 5.7 22.4 11.8 12.4 12.6 16.3 31.4 11.1 53.3-5.5 23.4-26.1 48.5-49.2 60.1-6.7 3.3-19.1 7.1-23.5 7.1-4.1 0-3.4 1.7 1 2.3 15 2.1 28.4 13.2 34.3 28.5 3 7.9 3.7 23.1 1.5 33.9-5.7 28.2-29.1 56.3-55.4 66.5-13.5 5.3-18.8 5.8-59.7 5.8-39.8 0-48-.6-61-4.7-11.8-3.7-20-8.6-28.6-17.2-11.4-11.4-17.7-24.2-21.6-44-2.4-12.2-2.4-43.1 0-60.6 7.2-50.7 26.5-119.7 46.4-165.5 29.2-67.1 71.5-105.8 125.3-114.5 6.4-1 18.7-1.3 50.5-1.1 36 .2 42.7.5 46.8 1.9z"/><path d="M643.2 405c-35.6 3.6-67.2 16.1-96.4 38.1-10.9 8.3-33.6 31-42.8 42.9-28.2 36.8-48.6 77.4-71.5 142.7-14.8 41.8-18.8 56.3-63.6 225.8l-32.2 122-.5 12c-.5 13.8.6 20.4 4.8 29.3 7.8 16.5 24.1 24.4 51 24.4 11.2 0 15.1-.4 23-2.5 30.3-7.9 54.7-28.4 65.6-55 1.8-4.5 13.2-45.3 25.4-90.6 12.1-45.3 22.7-83.5 23.5-85 1.9-3.8 6.4-7.8 10.7-9.5 3.2-1.4 11.5-1.6 61-1.6 34.3 0 60.8-.4 65.8-1.1 11.3-1.4 24.7-5.9 34.5-11.7 10.2-6 25.1-20.7 32.9-32.4 10.7-16.3 15.6-31.7 15.6-49.8 0-27-9.9-41.9-32.4-48.9l-8.1-2.5-64.6-.6c-70.7-.6-67.9-.3-67.9-6.5 0-5.5 9.7-32.2 17-47 12.9-26.1 25.9-37.4 50.4-43.7 7.3-1.9 12.2-2.1 49.6-2.8 45.2-.8 47.8-1.1 63.1-7.5 19.3-8.1 38-26.3 48.9-47.5 6.9-13.5 9.1-21.9 9.7-37 1.2-29.7-9.5-45.9-34.9-52.7-5.5-1.5-13.7-1.7-67.8-1.9-33.8-.1-65.2.2-69.8.6zM1021.8 407c-20.4 3.3-38.2 11.9-52.7 25.6-9.6 9-15.3 16.8-21.1 28.9-4.5 9-8.3 22.5-40.5 141.5-19.6 72.3-38.3 142.3-41.5 155.5C841.4 859 836.8 924.9 851.2 970c12.6 39.3 39 62.1 80.8 69.6 8.1 1.5 18.4 1.8 69.5 2.1 39.5.3 63.2.1 69.3-.6 12.1-1.5 25.8-5.9 35.5-11.7 20-11.7 40.1-37.7 46.3-59.9 2.1-7.7 3-29.3 1.5-36.6-2.8-13.5-10.7-24.2-22.1-29.9-11.2-5.7-15.4-6.1-63-7-26.7-.5-45.2-1.2-47.8-1.9-11.3-3-18-9.4-21.5-20.6-1.9-6.1-2.2-9.1-2.1-23 .2-29.8 7.7-66.6 29.2-143.5 6.2-22.3 23.8-87.2 48.9-180.5 14.2-52.9 14.6-54.3 15-66.4.4-8 .1-14.4-.7-18-3.9-17.7-15.6-29.1-34.2-33.6-7.8-1.9-26.4-2.7-34-1.5zM1494.8 407c-20.4 3.3-38.2 11.9-52.7 25.6-9.6 9-15.3 16.8-21.1 28.9-4.5 9-8.3 22.5-40.5 141.5-19.6 72.3-38.3 142.3-41.5 155.5-24.6 100.5-29.2 166.4-14.8 211.5 12.6 39.3 39 62.1 80.8 69.6 8.1 1.5 18.4 1.8 69.5 2.1 39.5.3 63.2.1 69.3-.6 12.1-1.5 25.8-5.9 35.5-11.7 20-11.7 40.1-37.7 46.3-59.9 2.1-7.7 3-29.3 1.5-36.6-2.8-13.5-10.7-24.2-22.1-29.9-11.2-5.7-15.4-6.1-63-7-26.7-.5-45.2-1.2-47.8-1.9-11.3-3-18-9.4-21.5-20.6-1.9-6.1-2.2-9.1-2.1-23 .2-29.8 7.7-66.6 29.2-143.5 6.2-22.3 23.8-87.2 48.9-180.5 14.2-52.9 14.6-54.3 15-66.4.4-8 .1-14.4-.7-18-3.9-17.7-15.6-29.1-34.2-33.6-7.8-1.9-26.4-2.7-34-1.5zM290.5 1272.1c-36.3 4.6-68 28.2-92.3 68.9-11.4 19.2-18.4 40.7-20.4 63.3-3.9 42.7 13 73.6 45.2 82.7 5.1 1.4 12.7 2.4 24 3 9.1.5 18.1 1.4 20.1 2 7.1 2 10.9 9 10.9 19.8 0 6.1-.4 7.5-3.7 13-4.8 7.8-10.2 13.6-15.1 16.1-5.6 2.9-16 4.4-26.6 3.9-7.9-.3-9.9-.8-14-3.2-3.1-1.8-5.8-4.4-7.5-7.3-4.1-7.1-9.2-12.5-13.7-14.4-13.8-6.2-35.9-1.1-48.4 11.1-11.7 11.4-17.5 25.1-17.4 41 .2 14.6 4.4 24.4 15.1 34.6 10.3 10 26.7 16.2 48.3 18.5 15.3 1.6 54.1.6 64-1.6 31-6.9 56.1-25.7 78.1-58.4 38.4-57 35-129.9-7.1-150.4-10.7-5.2-17.4-6.7-35.5-7.7-19.8-1.1-21.8-1.5-26-5.4-3.8-3.7-5.5-8.8-5.5-17.2 0-5.2.5-6.9 3.8-12.2 9.3-15.4 18.2-20.2 37.5-20.2 13.3 0 19.3 2.6 25.4 11 6.1 8.6 9.8 12.3 13.9 14.1 9.5 4.3 24.1 3.2 36.2-2.6 20.3-9.7 33.3-35.2 29.3-57.5-4.5-25-26.4-41-61.5-44.9-11.1-1.3-47-1.2-57.1 0zM579.5 1272.1c-39.7 5.4-70 30.9-94.3 79.5-22.8 45.8-45.9 126.5-51.3 179.8-1.6 16.3-.7 38.7 2 49.1 4.8 18.3 14.3 31 28.2 37.9 9.9 4.9 18.3 6.4 37.9 7.2 51.1 1.9 78-7.4 107.5-37 13.1-13.2 20.9-23.5 28-36.8 11.6-21.9 13.6-40.5 5.5-51.7-8.3-11.4-31.3-13.5-49.9-4.4-12.7 6.3-23.6 19.4-28.1 33.8-2.2 7.2-7.6 11.2-17.8 13.4-10.2 2.1-16.8.7-22.3-4.8-4.5-4.5-5.9-9.1-5.9-20.1 0-31.1 24.8-121.1 40.5-146.9 4.3-7.1 11.1-13.6 17.2-16.3 9.1-4 24.4-3.2 30 1.6 2.9 2.5 2.9 2.8 1.8 18.1-.8 11.5.1 16.3 4.4 22.2 8.3 11.5 30.3 13.4 48.8 4.3 19.2-9.4 29.4-25.6 30.9-48.9 2.3-33.9-9.8-61.4-31.7-72.4-13.6-6.8-20-7.9-48.9-8.3-14-.1-28.6.2-32.5.7zM867.8 1272.5c-49.7 8.6-83.8 48.6-111.9 131.3-15 44.2-26.4 92.9-30 127.7-1.6 16.1-.7 38.5 2 49 6.2 23.8 20.5 38.2 43.1 43.2 11.8 2.6 55.1 2.4 68-.4 41.8-9 72.5-40.6 96.4-99.5 18.7-45.9 37.5-117.5 41.7-158.2 1.6-16.4.7-39.8-2-49.9-6-22.7-19-36.2-40.6-42.3-8.1-2.3-55.1-3-66.7-.9zm16.9 84.1c6 4.6 6.8 7.2 6.7 22.9 0 12.1-.5 16.3-3.7 31.5-7.5 35.9-22.3 85-31 103.3-7.2 15.1-14.8 23.7-24.3 27.3-7.8 3-14.2.5-18.6-7.1-2.1-3.7-2.3-5.1-2.2-18 0-12.4.5-16.3 4.2-34 10.9-52.3 28.9-103.8 41.1-117.7 6.6-7.4 15.8-12.3 21.5-11.3 1.6.3 4.4 1.7 6.3 3.1zM1150.3 1272.1c-35.7 5.2-63.1 22-78.9 48.5-8.5 14.3-10.7 21.8-42.4 139.9-35.1 130.7-35 130.3-35 136.6 0 6.8 2.7 14.5 6.6 18.8 9.7 10.8 30.9 12 49.4 2.8 7.8-3.8 18.4-14 22.2-21.3 1.5-2.8 6.3-17.5 10.6-32.8 8.5-29.6 9.4-31.5 16-33.7 4.7-1.5 24.6-.6 29.3 1.4 4.4 1.9 7.3 5.2 8.9 10.1 1.8 5.6.7 19.7-2.6 33.1-1.5 6-2.9 15.1-3.1 20.2-.4 8.3-.2 9.8 2 14.7 2.8 6 8.3 10.8 14.6 12.6 17.2 5.1 38.9-.8 52.3-14.2 8.9-8.9 13.4-20 18.7-46 4.4-21.4 5.5-47.6 2.6-61.3-2.5-11.7-2.5-11.7 8.1-26.7 17-24 24.9-42.5 34.8-81 6.6-25.4 7.9-34 7.9-50.8 0-22.2-3.6-35.6-12.8-48.5-8.3-11.7-23.4-19.9-41-22.5-8.5-1.2-59.5-1.1-68.2.1zm25.3 81.8c11.3 5.1 13 23.6 4.7 51.1-4.3 14.3-8.8 24-14.2 30.7-7.1 9-16.6 12.3-35.1 12.3-8.3 0-10.1-.3-12.4-2.1-1.4-1.1-2.6-2.9-2.6-3.9 0-2.8 17.1-65.2 18.7-68.4 1.8-3.5 9.6-12 13.7-14.9 4.8-3.4 13.8-6.7 18.6-6.7 2.5 0 6.3.9 8.6 1.9zM1702.3 1272.1c-35.7 5.2-63.1 22-78.9 48.5-8.5 14.3-10.7 21.8-42.4 139.9-35.1 130.7-35 130.3-35 136.6 0 6.8 2.7 14.5 6.6 18.8 9.7 10.8 30.9 12 49.4 2.8 7.8-3.8 18.4-14 22.2-21.3 1.5-2.8 6.3-17.5 10.6-32.8 8.5-29.6 9.4-31.5 16-33.7 4.7-1.5 24.6-.6 29.3 1.4 4.4 1.9 7.3 5.2 8.9 10.1 1.8 5.6.7 19.7-2.6 33.1-1.5 6-2.9 15.1-3.1 20.2-.4 8.3-.2 9.8 2 14.7 2.8 6 8.3 10.8 14.6 12.6 17.2 5.1 38.9-.8 52.3-14.2 8.9-8.9 13.4-20 18.7-46 4.4-21.4 5.5-47.6 2.6-61.3-2.5-11.7-2.5-11.7 8.1-26.7 17-24 24.9-42.5 34.8-81 6.6-25.4 7.9-34 7.9-50.8 0-22.2-3.6-35.6-12.8-48.5-8.3-11.7-23.4-19.9-41-22.5-8.5-1.2-59.5-1.1-68.2.1zm25.3 81.8c11.3 5.1 13 23.6 4.7 51.1-4.3 14.3-8.8 24-14.2 30.7-7.1 9-16.6 12.3-35.1 12.3-8.3 0-10.1-.3-12.4-2.1-1.4-1.1-2.6-2.9-2.6-3.9 0-2.8 17.1-65.2 18.7-68.4 1.8-3.5 9.6-12 13.7-14.9 4.8-3.4 13.8-6.7 18.6-6.7 2.5 0 6.3.9 8.6 1.9zM1451.5 1272.1c-39.3 5.2-70.3 31.3-94.3 79.4-22.4 44.9-44.6 121.5-50.8 175.5-2 16.6-1.5 40.1 1 51 5.5 23.8 19.6 38.9 41.7 44.6 8.3 2.2 73.8 3.3 84.8 1.4 20.1-3.4 37.3-20 42.8-41.3 3.2-12.6-.2-27-7.8-32.6-6.5-4.9-9.8-5.4-38.9-6-28.9-.7-30.9-1-35.2-5.8-5-5.5-6.2-18.7-3.4-35 1.7-9.2 2.7-11.8 5.6-13.3 1.1-.6 14.4-1 35.2-1 36.2 0 42.6-.7 52.5-5.5 11.1-5.5 23.6-20.2 27.4-32.4 3.9-12.6 2.6-26.4-3.3-33.5-7-8.5-13.2-9.6-54.9-9.6-18 0-33.4-.3-34.3-.6-2.3-.9-2-4.2 1.4-13.6 5.4-14.6 10.9-24.7 16.9-30.8 8.5-8.6 11-9.1 43.6-10 16.4-.5 28.6-1.2 31-2 22.5-6.9 39.5-30.6 38.3-53.4-.7-12.8-5.6-20.2-16.1-24.4-3.6-1.4-9.4-1.6-40.2-1.8-19.8-.1-39.1.2-43 .7z"/></svg>