<svg xmlns="http://www.w3.org/2000/svg" width="226.771" height="209.02" viewBox="0 0 226.771 209.02"><g transform="translate(0)"><path d="M2924.3-4361.5H2780.564l8.765-41.435a.549.549,0,0,1,.538-.436h10.18l-3.5,22.6a2.871,2.871,0,0,0,2.838,3.313h10.982l-.685,4.239-.2,1.255a2.872,2.872,0,0,0,2.835,3.328h18.2a2.867,2.867,0,0,0,2.863-2.706l.108-1.877.242-4.239h16.5v5.952a2.869,2.869,0,0,0,2.87,2.87h39.772a2.869,2.869,0,0,0,2.847-3.236l-.172-1.347-.544-4.239h10.756a2.872,2.872,0,0,0,2.835-3.313l-3.5-22.6h9.7a.548.548,0,0,1,.539.433Z" transform="translate(-2739.166 4457.646)" fill="#68c3e2"/><path d="M2923.858-4146.7a32.52,32.52,0,0,1-3.638,4.3,32.374,32.374,0,0,1-15.109,8.473l-58.631,14.508a2.688,2.688,0,0,1-1.312,0l-58.653-14.533a32.4,32.4,0,0,1-15.072-8.447,32.523,32.523,0,0,1-3.646-4.3Z" transform="translate(-2732.428 4322.189)" fill="#68c3e2"/><path d="M2923.858-4146.7a32.52,32.52,0,0,1-3.638,4.3H2771.444a32.523,32.523,0,0,1-3.646-4.3Z" transform="translate(-2732.428 4322.189)" fill="#0095b9"/><path d="M2834.921-4348.5l-.685,4.239H2828.5a1.409,1.409,0,0,1-1.4-1.631l.407-2.608Z" transform="translate(-2763.72 4428.689)" fill="#0095b9"/><path d="M2867.137-4348.5l-.172,2.981a1.229,1.229,0,0,1-1.226,1.16h-11.76a1.228,1.228,0,0,1-1.213-1.424l.437-2.717Z" transform="translate(-2777.262 4428.689)" fill="#0095b9"/><path d="M2909.367-4348.5v4.239H2892.63l.242-4.239Z" transform="translate(-2798.309 4428.688)" fill="#0095b9"/><path d="M2972.488-4344.359h-33.271a1.23,1.23,0,0,1-1.229-1.229v-2.912h35.367l.353,2.751A1.232,1.232,0,0,1,2972.488-4344.359Z" transform="translate(-2822.247 4428.689)" fill="#0095b9"/><path d="M3029.068-4344.261h-5.644l-.544-4.239h7.185l.4,2.615A1.412,1.412,0,0,1,3029.068-4344.261Z" transform="translate(-2867.049 4428.689)" fill="#0095b9"/><path d="M2831.946-4404.457l-.077.461h.089v-.538Z" transform="translate(-2766.242 4458.261)" fill="#a5ca18"/><path d="M3033.907-4405.282l.14.895h-.14Z" transform="translate(-2872.868 4458.657)" fill="#a5ca18"/><path d="M2885.953-4503.91a1.061,1.061,0,0,0,1.229-.218l.011-.012a31.206,31.206,0,0,1,7.611-5.809,29.277,29.277,0,0,1,8.842-3.117,30.866,30.866,0,0,1,9.254-.205,32.346,32.346,0,0,1,6.814,1.653.161.161,0,0,0,.212-.125,7.438,7.438,0,0,1,2.084-3.923.165.165,0,0,0-.047-.27,28.2,28.2,0,0,0-8.506-2.215,30.04,30.04,0,0,0-5.427-.057,34.751,34.751,0,0,0-5.325.9,32.987,32.987,0,0,0-5.066,1.8,30.657,30.657,0,0,0-4.645,2.639,28.153,28.153,0,0,0-4.074,3.383,30.264,30.264,0,0,0-3.38,4.006A1.074,1.074,0,0,0,2885.953-4503.91Z" transform="translate(-2794.467 4518.305)" fill="#a5ca18"/><path d="M2969.341-4502.023a4.556,4.556,0,0,0,4.261-4.823,4.553,4.553,0,0,0-4.823-4.262,4.49,4.49,0,0,0-2.256.767,4.553,4.553,0,0,0-2,3.508,3.806,3.806,0,0,0,0,.548A4.555,4.555,0,0,0,2969.341-4502.023Z" transform="translate(-2836.243 4514.511)" fill="#8aab4b"/><path d="M2919.627-4323.2l-16.126-75.718a1.541,1.541,0,0,0-1.506-1.22h-17.871l-9.775-45.2a3.331,3.331,0,0,0-3.258-2.628H2857.9l-2.411-15.587a2.871,2.871,0,0,0-2.838-2.431h-9.669l-.933-8.058a2.872,2.872,0,0,0-2.851-2.542H2824.49a2.873,2.873,0,0,0-2.867,3.055l.487,7.544h-13.469v-7.73a2.872,2.872,0,0,0-2.87-2.869h-32.379a2.87,2.87,0,0,0-2.851,2.529l-.965,8.07h-9.622a2.87,2.87,0,0,0-2.835,2.431l-2.414,15.587h-13.68a3.335,3.335,0,0,0-3.261,2.644l-9.556,45.186h-18.371a1.542,1.542,0,0,0-1.51,1.236l-15.387,75.718a1.988,1.988,0,0,0,1.945,2.386h26.331c.3.529.612,1.054.94,1.577a38.365,38.365,0,0,0,23.4,16.951l60.306,14.951a1.818,1.818,0,0,0,.866,0l60.283-14.919a38.368,38.368,0,0,0,23.455-17.024c.315-.507.621-1.02.908-1.536h26.308A1.986,1.986,0,0,0,2919.627-4323.2Zm-91.9-148.7h8.756a1.227,1.227,0,0,1,1.219,1.089l.561,4.828H2826.8l-.293-4.608A1.23,1.23,0,0,1,2827.732-4471.9Zm-19.091,10.6h13.766l.767,11.916h-3.513a.674.674,0,0,0-.57,1.035l2.363,3.755,3.966,6.306a.82.82,0,0,0,1.42-.062l3.22-6.245,1.962-3.806a.674.674,0,0,0-.6-.984h-3.558l-.765-11.916h22.942a1.23,1.23,0,0,1,1.217,1.045l2.421,15.661.258,1.678v.006l.14.9,3.067,19.818a1.231,1.231,0,0,1-1.217,1.417h-47.288Zm0,45.205h35.367l.353,2.752a1.232,1.232,0,0,1-1.22,1.389H2809.87a1.23,1.23,0,0,1-1.229-1.229Zm-33.774-54.719a1.23,1.23,0,0,1,1.219-1.085h26.64a1.231,1.231,0,0,1,1.233,1.232v4.685h-29.666Zm-19.413,48.618,3.468-22.4,2.427-15.661a1.228,1.228,0,0,1,1.213-1.045h41.4v40.521h-16.224l.933-16.225h3.8a.676.676,0,0,0,.592-1l-3.555-6.592-1.746-3.24a.82.82,0,0,0-1.4-.061l-2.166,3.3-4.3,6.545a.676.676,0,0,0,.564,1.044h3.523l-.934,16.225h-26.372A1.23,1.23,0,0,1,2755.454-4422.2Zm27.321,6.1-.172,2.981a1.23,1.23,0,0,1-1.227,1.16h-11.759a1.228,1.228,0,0,1-1.213-1.424l.436-2.717Zm-39.711-25.474a.548.548,0,0,1,.538-.436h10.179l-3.5,22.6a2.87,2.87,0,0,0,2.838,3.312H2764.1l-.685,4.239-.2,1.256a2.873,2.873,0,0,0,2.835,3.328h18.2a2.868,2.868,0,0,0,2.863-2.707l.108-1.877.242-4.239h16.5v5.953a2.869,2.869,0,0,0,2.87,2.871H2846.6a2.869,2.869,0,0,0,2.847-3.236l-.172-1.348-.544-4.239h10.756a2.87,2.87,0,0,0,2.835-3.312l-3.5-22.6h9.7a.546.546,0,0,1,.538.433l8.966,41.438H2734.3Zm137.63,125.074a32.385,32.385,0,0,1-15.11,8.472l-58.631,14.508a2.7,2.7,0,0,1-1.312,0l-58.653-14.534a32.4,32.4,0,0,1-15.072-8.446,32.6,32.6,0,0,1-3.647-4.3H2884.33A32.543,32.543,0,0,1,2880.694-4316.5Z" transform="translate(-2692.9 4496.286)"/><path d="M2873.85-4433.172v-11.052h-41.4a1.228,1.228,0,0,0-1.213,1.045l-2.427,15.66-3.468,22.4a1.23,1.23,0,0,0,1.216,1.417h26.372l.934-16.224h-3.523a.676.676,0,0,1-.564-1.045l4.3-6.545,2.166-3.3a.819.819,0,0,1,1.4.061l1.746,3.239,3.554,6.593a.676.676,0,0,1-.592,1h-3.8l-.934,16.224h16.225v-16.129c-3.653-.815-6.332-3.494-6.332-6.669a5.61,5.61,0,0,1,.093-1.016C2868.11-4430.238,2870.591-4432.446,2873.85-4433.172Zm-33.15,13.941a7.387,7.387,0,0,1-7.348,6.592h-6.835l1.9-12.3.076-.461.013-.077.042-.29.271-1.749.063-.4,1.389-8.953.185-1.2v0h7.157a4.506,4.506,0,0,1,2.94,1.071,4.568,4.568,0,0,1,1.627,4.02l-.548,5.07-.044.4Z" transform="translate(-2762.791 4479.208)" fill="#a5ca18"/><path d="M2985.275-4403.7h-47.288v-16.126c3.659-.815,6.341-3.494,6.341-6.672a5.677,5.677,0,0,0-.092-1.016c-.5-2.724-2.988-4.93-6.249-5.657v-11.049h13.766l.767,11.915h-3.513a.675.675,0,0,0-.57,1.036l2.363,3.755,3.966,6.307a.82.82,0,0,0,1.42-.062l3.22-6.245,1.962-3.806a.674.674,0,0,0-.6-.984h-3.558l-.765-11.915h22.942a1.23,1.23,0,0,1,1.217,1.045l2.421,15.66.258,1.679-.261-1.679-.064-.4-.786-5.079-.787-5.082h-7.112a4.544,4.544,0,0,0-2.943,1.071,4.571,4.571,0,0,0-1.628,4.023l.545,5.067.044.4.9,8.288a7.381,7.381,0,0,0,7.341,6.592h6.8l-1.9-12.3,3.067,19.818A1.231,1.231,0,0,1,2985.275-4403.7Z" transform="translate(-2822.247 4479.208)" fill="#a5ca18"/><path d="M3020.741-4405.774h-6.8a7.383,7.383,0,0,1-7.342-6.594l-.895-8.287-.044-.4-.544-5.068a4.572,4.572,0,0,1,1.627-4.023,4.546,4.546,0,0,1,2.943-1.07h7.112l.787,5.081.787,5.081.064.4.261,1.678v.9h.14Z" transform="translate(-2857.661 4472.345)" fill="#8aab4b"/><path d="M2921-4420.821v13.339c-3.653-.815-6.332-3.494-6.332-6.67a5.653,5.653,0,0,1,.093-1.016C2915.257-4417.887,2917.738-4420.1,2921-4420.821Z" transform="translate(-2809.937 4466.857)" fill="#8aab4b"/><path d="M2944.329-4414.155c0,3.179-2.682,5.858-6.341,6.673v-13.345c3.261.726,5.745,2.933,6.249,5.656A5.685,5.685,0,0,1,2944.329-4414.155Z" transform="translate(-2822.247 4466.86)" fill="#8aab4b"/><path d="M2843.507-4426.131l-.548,5.071-.044.4-.889,8.287a7.388,7.388,0,0,1-7.348,6.594h-6.835l1.9-12.3h.089v-.539l.042-.29.271-1.748.063-.4,1.389-8.954.185-1.2v0h7.157a4.508,4.508,0,0,1,2.94,1.07A4.569,4.569,0,0,1,2843.507-4426.131Z" transform="translate(-2764.117 4472.345)" fill="#8aab4b"/><g transform="translate(205.974 161.419)"><path d="M3130.843-4175.079a1.058,1.058,0,0,0-.392-.166l-.357-.083a1.876,1.876,0,0,1-.456-.144.284.284,0,0,1-.156-.277.421.421,0,0,1,.128-.3.6.6,0,0,1,.433-.132.619.619,0,0,1,.525.205.7.7,0,0,1,.108.318h.331a.725.725,0,0,0-.276-.63,1.161,1.161,0,0,0-.679-.2.941.941,0,0,0-.668.223.763.763,0,0,0-.239.58.549.549,0,0,0,.241.483,1.375,1.375,0,0,0,.475.173l.341.082a1.3,1.3,0,0,1,.411.154.347.347,0,0,1,.127.305.4.4,0,0,1-.3.392.961.961,0,0,1-.351.057.655.655,0,0,1-.6-.257.737.737,0,0,1-.1-.36h-.331a.842.842,0,0,0,.265.666,1.047,1.047,0,0,0,.738.249,1.368,1.368,0,0,0,.717-.185.663.663,0,0,0,.305-.618A.62.62,0,0,0,3130.843-4175.079Z" transform="translate(-3129.059 4176.491)" fill="#f4f4f4"/><path d="M3136.3-4176.35l-.742,2.2-.751-2.2h-.507v2.6h.338v-1.535c0-.061,0-.16-.007-.291s0-.226,0-.29v-.08l.749,2.194h.35l.746-2.194c0,.14,0,.271,0,.4s0,.209,0,.265v1.535h.334v-2.6Z" transform="translate(-3131.824 4176.416)" fill="#f4f4f4"/></g><path d="M2743.895-4293.391h-12.764q-.385,1.9-.772,3.8-5.351,26.324-10.7,52.646-.193.951-.386,1.9h7.989q.178-.949.357-1.9h0q2.209-11.766,4.419-23.532h6.087a4.928,4.928,0,0,1,3.969,1.754,5,5,0,0,1,1.086,4.229q-1,6.132-2,12.266-.43,2.64-.861,5.283l-.309,1.9H2748l.28-1.9h0q1.295-8.775,2.589-17.549a11.507,11.507,0,0,0-2.641-9.782,15.362,15.362,0,0,0,5.544-9.9q.415-2.818.832-5.638a12.091,12.091,0,0,0-2.324-9.58A10.047,10.047,0,0,0,2743.895-4293.391Zm2.492,19.216a7.24,7.24,0,0,1-2.443,4.345,6.622,6.622,0,0,1-4.5,1.812h-5.995q1.675-8.917,3.35-17.836h5.772a4.487,4.487,0,0,1,3.744,1.784,5.269,5.269,0,0,1,.989,4.257Q2746.846-4276.993,2746.386-4274.174Z" transform="translate(-2706.818 4399.605)" fill="#f4f4f4"/><path d="M2891.51-4293.391h-12.872q-.053.949-.105,1.9h0q-.648,11.738-1.3,23.475-.208,3.769-.417,7.538l-1.3,23.532h0q-.053.95-.1,1.9h7.989l1.012-25.431h6.2a13.14,13.14,0,0,0,9.654-4.028,13.179,13.179,0,0,0,3.961-9.667q0-2.818,0-5.638a13.6,13.6,0,0,0-3.77-9.58A11.789,11.789,0,0,0,2891.51-4293.391Zm5.34,19.216a6.135,6.135,0,0,1-1.8,4.345,5.709,5.709,0,0,1-4.23,1.812h-6.108q.355-8.917.71-17.836h5.882a5.254,5.254,0,0,1,4.008,1.784,5.926,5.926,0,0,1,1.62,4.257Q2896.893-4276.993,2896.85-4274.174Z" transform="translate(-2789.222 4399.605)" fill="#f4f4f4"/><path d="M2966.309-4242.586h-10.637q-.793-25.4-1.586-50.8H2947q.4,25.4.8,50.8l.119,7.538h20.737q-.211-3.768-.422-7.538h-1.923Z" transform="translate(-2827.003 4399.605)" fill="#f4f4f4"/><path d="M3011.45-4293.147a11.116,11.116,0,0,0-8.761,4,12.608,12.608,0,0,0-3.115,9.58q.153,2.074.305,4.148l2.841,38.6q.069.95.139,1.9h7.99l-.169-1.9h0q-1.044-11.708-2.087-23.417h12.237q1.335,11.708,2.67,23.417.108.95.217,1.9h7.989l-.246-1.9h0q-2.77-21.374-5.539-42.75a15.63,15.63,0,0,0-5.007-9.58A13.467,13.467,0,0,0,3011.45-4293.147Zm7.648,17.727q.435,3.823.872,7.646h-12.049q-.525-5.9-1.051-11.794a5.446,5.446,0,0,1,1.36-4.258,5.079,5.079,0,0,1,3.986-1.784,6,6,0,0,1,4.239,1.784,6.789,6.789,0,0,1,2.17,4.258Q3018.861-4277.495,3019.1-4275.421Z" transform="translate(-2854.726 4399.477)" fill="#f4f4f4"/><path d="M3081.386-4293.391q1.295,6.9,2.591,13.8.508,2.709,1.017,5.419a5.155,5.155,0,0,1-.947,4.345,4.694,4.694,0,0,1-3.891,1.812,6.787,6.787,0,0,1-4.583-1.812,7.182,7.182,0,0,1-2.47-4.345q-.442-2.709-.883-5.419l-2.246-13.8h-7.085q1.017,6.9,2.032,13.8.4,2.709.8,5.419a15.1,15.1,0,0,0,3.964,8.228,16.556,16.556,0,0,0,7.858,4.814q2.186,13.042,4.371,26.083h8.051l-.348-1.9q-.512-2.793-1.024-5.589l-3.4-18.577a10.175,10.175,0,0,0,6.133-4.862,11.561,11.561,0,0,0,1.056-8.2q-1.761-8.658-3.521-17.318h0l-.386-1.9Z" transform="translate(-2888.164 4399.605)" fill="#f4f4f4"/><path d="M2825.266-4271.15a11.433,11.433,0,0,0-5.68-1.408,13.4,13.4,0,0,0-6.135,1.457,16.406,16.406,0,0,0-3.638,2.542,15.4,15.4,0,0,0-5.156,9.58q-1.4,10.674-2.8,21.347a11.284,11.284,0,0,0,2.921,9.579,12.064,12.064,0,0,0,3.385,2.591,13.526,13.526,0,0,0,6.248,1.409,15.655,15.655,0,0,0,6.719-1.458,16.446,16.446,0,0,0,3.86-2.541,13.747,13.747,0,0,0,4.9-8.989h.013q.022-.294.044-.589h0q-.042.568-.085,1.139h0q.113-1.5.224-3h-7.75q-.084.93-.168,1.862a6.239,6.239,0,0,1-2.272,4.257,6.98,6.98,0,0,1-4.7,1.784,5.456,5.456,0,0,1-4.218-1.784,5.151,5.151,0,0,1-1.335-4.257q.4-3.5.809-7.008h20.025q.093-1.252.188-2.5h0q.443-5.919.887-11.839a12.545,12.545,0,0,0-3.126-9.58A11.966,11.966,0,0,0,2825.266-4271.15Zm-1.773,18.915h-12.166q.39-3.373.779-6.744a6.636,6.636,0,0,1,2.267-4.258,6.444,6.444,0,0,1,4.438-1.783,5.011,5.011,0,0,1,3.958,1.783,5.48,5.48,0,0,1,1.333,4.258Q2823.8-4255.608,2823.493-4252.236Z" transform="translate(-2750.341 4388.611)" fill="#f4f4f4"/></g></svg>